<svg width="890" height="190" viewBox="0 0 890 190" fill="none" xmlns="http://www.w3.org/2000/svg">
<path fill-rule="evenodd" clip-rule="evenodd" d="M31.5054 185.921C39.3254 185.921 48.3516 184.585 58.4673 179.672L54.1404 156.599C49.2151 157.632 46.3015 157.856 43.9957 157.856C36.6958 157.856 34.6841 154.298 34.6841 145.272V0.00634766H0V158.929C0 174.233 8.64437 185.921 31.5054 185.921Z" fill="#DF321A"/>
<path fill-rule="evenodd" clip-rule="evenodd" d="M536.977 89.6054L549.722 63.1979C544.493 59.8252 537.261 57.9634 530.599 57.9634C517.55 57.9634 506.835 62.6617 492.628 73.7453L488.88 60.8194H459.612V183.314H494.414V96.5755C503.666 89.0502 512.654 85.6673 520.729 85.6673C525.095 85.6673 531.168 86.4667 536.977 89.6054Z" fill="#DF321A"/>
<path fill-rule="evenodd" clip-rule="evenodd" d="M638.78 171.151L644.915 183.317H673.566C671.268 177.068 670.972 168.275 670.972 149.393V60.8223H636.268V151.216C630.404 155.885 621.138 161.286 609.839 161.286C593.068 161.286 585.21 151.693 585.21 136.438V60.8223H550.448V138.29C550.448 177.604 578.891 185.929 596.868 185.929C615.085 185.929 629.287 178.92 638.78 171.151Z" fill="#DF321A"/>
<path fill-rule="evenodd" clip-rule="evenodd" d="M844.869 57.9634C829.764 57.9634 811.813 64.2118 795.868 76.4165C789.518 65.0111 777.008 57.9634 759.978 57.9634C744.034 57.9634 728.392 63.9197 713.351 74.3206L709.86 60.8194H680.579V183.314H715.327V96.8777C724.353 90.3271 735.866 84.3904 748.395 84.3904C765.166 84.3904 768.02 95.7957 768.02 109.521V183.314H802.862V101.196C802.862 99.6556 802.862 97.872 802.559 96.8777C811.548 90.3271 823.092 84.3904 835.596 84.3904C852.607 84.3904 855.599 95.3181 855.599 108.965V183.314H890V100.211C890 68.0918 868.287 57.9634 844.869 57.9634Z" fill="#DF321A"/>
<path fill-rule="evenodd" clip-rule="evenodd" d="M386.815 160.6C364.738 160.6 349.54 143.521 349.54 122.406C349.54 101.653 364.738 84.2914 386.815 84.2914C408.891 84.2914 424.089 101.653 424.089 122.406C424.089 143.521 408.891 160.6 386.815 160.6ZM386.815 55.6714C349.001 55.6714 319.164 85.5494 319.164 122.748C319.164 159.878 349.296 189.269 386.815 189.269C424.375 189.269 454.536 159.878 454.536 122.748C454.536 85.5494 424.678 55.6714 386.815 55.6714Z" fill="#DF321A"/>
<path fill-rule="evenodd" clip-rule="evenodd" d="M115.939 127.778C117.126 127.758 118.392 127.681 119.678 127.681L139.399 127.134V153.503C134.935 157.041 127.458 160.999 115.939 161.292H114.771C100.3 161.292 92.4601 154.303 92.4601 144.223C92.4601 134.573 99.7304 128.977 115.939 127.778ZM102.585 185.926C107.412 185.926 111.877 185.468 115.938 184.707C127.202 182.534 135.66 177.738 142.234 172.445L148.052 183.314H177.32C175.27 177.601 174.69 168.575 174.69 150.911V102.551C174.69 70.392 154.155 57.9634 120.285 57.9634C118.794 57.9634 117.361 57.9829 115.938 58.0416C99.3277 58.4605 83.4718 61.3753 66.635 71.445L77.9967 90.9019C86.6411 86.213 98.2483 81.7778 113.28 81.7778C114.192 81.7778 115.055 81.8561 115.938 81.8561C129.204 82.5967 139.398 88.6306 139.398 102.551V105.631L115.938 106.363L115.055 106.402C80.0279 107.405 57.687 121.189 57.687 146.495C57.687 170.612 77.3592 185.926 102.585 185.926Z" fill="#DF321A"/>
<path fill-rule="evenodd" clip-rule="evenodd" d="M222.699 158.2V87.9848C227.644 86.2108 233.472 84.1149 242.126 84.1149C245.442 84.1149 248.533 84.4461 251.427 85.0701C269.549 88.8233 280.097 103.572 280.097 120.144C280.097 138.909 268.46 154.145 251.427 158.922C247.787 159.975 243.873 160.481 239.849 160.481C232.893 160.481 227.948 159.741 222.699 158.2ZM314.871 117.552C314.871 78.423 284.503 58.7611 251.428 57.9813C250.771 57.9813 250.065 57.9617 249.417 57.9617C239.272 57.9617 230.843 59.5024 222.699 61.6367V0H187.976V177.064C199.279 182.815 214.634 185.925 233.139 185.925C239.448 185.925 245.541 185.388 251.428 184.375C287.28 178.38 314.871 154.467 314.871 117.552Z" fill="#DF321A"/>
</svg>
